<svg width="800" height="400" viewBox="0 0 800 400" xmlns="http://www.w3.org/2000/svg"><defs><pattern id="satori_pattern_id_0" x="0" y="0" width="1" height="1" patternUnits="objectBoundingBox"><linearGradient id="satori_biid_0" x1="0" y1="0" x2="0" y2="1" spreadMethod="pad"><stop offset="0%" stop-color="#dbf4ff"/><stop offset="100%" stop-color="#fff1f1"/></linearGradient><rect x="0" y="0" width="800" height="400" fill="url(#satori_biid_0)"/></pattern></defs><mask id="satori_om-id"><rect x="0" y="0" width="800" height="400" fill="#fff"/></mask><rect x="0" y="0" width="800" height="400" fill="url(#satori_pattern_id_0)"/><clipPath id="satori_bct-id-0"><path d="M385.3 115.5L374.3 149.1L364.4 149.1L379.5 105.5L391.4 105.5L406.4 149.1L396.5 149.1L385.6 115.5L385.3 115.5ZM373.7 139.2L373.7 132.0L397.0 132.0L397.0 139.2L373.7 139.2ZM409.7 105.5L418.9 105.5L418.9 149.1L409.7 149.1L409.7 105.5ZM429.6 149.7L429.6 149.7Q427.5 149.7 426.0 148.2Q424.5 146.7 424.5 144.6L424.5 144.6Q424.5 142.5 426.0 141.0Q427.5 139.5 429.6 139.5L429.6 139.5Q431.7 139.5 433.2 141.0Q434.7 142.5 434.7 144.6L434.7 144.6Q434.7 146.0 434.0 147.1Q433.3 148.3 432.2 149.0Q431.0 149.7 429.6 149.7Z "/></clipPath><defs><pattern id="satori_pattern_id-0_0" x="0" y="0" width="1" height="1" patternUnits="objectBoundingBox"><linearGradient id="satori_biid-0_0" x1="0" y1="0" x2="1" y2="0" spreadMethod="pad"><stop offset="0%" stop-color="rgb(0, 124, 240)"/><stop offset="100%" stop-color="rgb(0, 223, 216)"/></linearGradient><rect x="0" y="0" width="74" height="73" fill="url(#satori_biid-0_0)"/></pattern></defs><mask id="satori_om-id-0"><rect x="363" y="91" width="74" height="73" fill="#fff"/></mask><rect x="363" y="91" width="74" height="73" fill="url(#satori_pattern_id-0_0)" clip-path="url(#satori_bct-id-0)"/><clipPath id="satori_bct-id-1"><path d="M298.2 206.7L282.2 178.5L292.6 178.5L302.5 197.3L302.9 197.3L312.9 178.5L323.2 178.5L307.3 206.7L307.3 222.1L298.2 222.1L298.2 206.7ZM334.1 222.8L334.1 222.8Q329.1 222.8 325.5 220.6Q321.9 218.5 319.9 214.7Q318.0 210.9 318.0 205.9L318.0 205.9Q318.0 200.8 319.9 197.0Q321.9 193.2 325.5 191.1Q329.1 189.0 334.1 189.0L334.1 189.0Q339.0 189.0 342.7 191.1Q346.3 193.2 348.2 197.0Q350.2 200.8 350.2 205.9L350.2 205.9Q350.2 210.9 348.2 214.7Q346.3 218.5 342.7 220.6Q339.0 222.8 334.1 222.8ZM334.1 215.7L334.1 215.7Q336.4 215.7 337.9 214.4Q339.4 213.2 340.2 210.9Q341.0 208.7 341.0 205.8L341.0 205.8Q341.0 203.0 340.2 200.7Q339.4 198.5 337.9 197.2Q336.4 195.9 334.1 195.9L334.1 195.9Q331.8 195.9 330.3 197.2Q328.8 198.5 328.0 200.7Q327.2 203.0 327.2 205.8L327.2 205.8Q327.2 208.7 328.0 210.9Q328.8 213.2 330.3 214.4Q331.8 215.7 334.1 215.7ZM375.1 208.2L375.1 208.2L375.1 189.4L384.2 189.4L384.2 222.1L375.5 222.1L375.5 216.2L375.1 216.2Q374.0 219.1 371.4 220.8Q368.9 222.6 365.2 222.6L365.2 222.6Q361.9 222.6 359.4 221.1Q356.9 219.6 355.5 216.8Q354.1 214.1 354.1 210.2L354.1 210.2L354.1 189.4L363.2 189.4L363.2 208.6Q363.2 211.5 364.7 213.2Q366.3 214.9 368.9 214.9L368.9 214.9Q370.5 214.9 371.9 214.1Q373.3 213.4 374.2 211.9Q375.1 210.4 375.1 208.2ZM387.1 189.4L406.8 189.4L406.8 196.2L387.1 196.2L387.1 189.4ZM391.6 213.3L391.6 181.6L400.7 181.6L400.7 212.1Q400.7 213.3 401.1 214.0Q401.4 214.7 402.1 215.0Q402.8 215.3 403.7 215.3L403.7 215.3Q404.4 215.3 405.0 215.1Q405.7 215.0 406.0 215.0L406.0 215.0L407.4 221.7Q406.7 221.9 405.5 222.2Q404.3 222.5 402.5 222.6L402.5 222.6Q399.2 222.7 396.8 221.7Q394.3 220.7 392.9 218.6Q391.6 216.5 391.6 213.3L391.6 213.3ZM431.7 208.2L431.7 208.2L431.7 189.4L440.8 189.4L440.8 222.1L432.1 222.1L432.1 216.2L431.7 216.2Q430.6 219.1 428.1 220.8Q425.5 222.6 421.8 222.6L421.8 222.6Q418.5 222.6 416.0 221.1Q413.5 219.6 412.1 216.8Q410.7 214.1 410.7 210.2L410.7 210.2L410.7 189.4L419.8 189.4L419.8 208.6Q419.8 211.5 421.4 213.2Q422.9 214.9 425.5 214.9L425.5 214.9Q427.1 214.9 428.5 214.1Q430.0 213.4 430.9 211.9Q431.7 210.4 431.7 208.2ZM455.2 222.1L446.2 222.1L446.2 178.5L455.3 178.5L455.3 194.9L455.6 194.9Q456.2 193.6 457.3 192.2Q458.4 190.8 460.3 189.9Q462.1 189.0 464.9 189.0L464.9 189.0Q468.5 189.0 471.5 190.8Q474.5 192.7 476.3 196.4Q478.1 200.2 478.1 205.8L478.1 205.8Q478.1 211.3 476.4 215.0Q474.6 218.8 471.6 220.7Q468.6 222.7 464.8 222.7L464.8 222.7Q462.2 222.7 460.4 221.8Q458.5 220.9 457.3 219.6Q456.2 218.2 455.6 216.9L455.6 216.9L455.2 216.9L455.2 222.1ZM455.1 205.8L455.1 205.8Q455.1 208.7 455.9 210.9Q456.7 213.0 458.2 214.2Q459.8 215.4 462.0 215.4L462.0 215.4Q464.2 215.4 465.7 214.2Q467.3 213.0 468.1 210.8Q468.9 208.6 468.9 205.8L468.9 205.8Q468.9 202.9 468.1 200.8Q467.3 198.6 465.7 197.4Q464.2 196.2 462.0 196.2L462.0 196.2Q459.8 196.2 458.2 197.4Q456.7 198.5 455.9 200.7Q455.1 202.8 455.1 205.8ZM497.1 222.8L497.1 222.8Q492.0 222.8 488.4 220.7Q484.8 218.7 482.8 214.9Q480.8 211.1 480.8 205.9L480.8 205.9Q480.8 200.9 482.8 197.0Q484.8 193.2 488.3 191.1Q491.9 189.0 496.7 189.0L496.7 189.0Q499.9 189.0 502.7 190.0Q505.5 191.0 507.6 193.1Q509.7 195.2 510.9 198.3Q512.1 201.4 512.1 205.6L512.1 205.6L512.1 208.1L484.5 208.1L484.5 202.5L503.5 202.5Q503.5 200.5 502.7 199.0Q501.8 197.5 500.3 196.6Q498.8 195.7 496.9 195.7L496.9 195.7Q494.8 195.7 493.2 196.7Q491.6 197.6 490.7 199.2Q489.8 200.8 489.8 202.8L489.8 202.8L489.8 208.1Q489.8 210.5 490.7 212.3Q491.6 214.1 493.3 215.0Q494.9 216.0 497.2 216.0L497.2 216.0Q498.7 216.0 500.0 215.6Q501.2 215.1 502.1 214.3Q503.0 213.4 503.5 212.2L503.5 212.2L511.9 212.8Q511.3 215.8 509.3 218.0Q507.3 220.3 504.2 221.5Q501.1 222.8 497.1 222.8Z "/></clipPath><defs><pattern id="satori_pattern_id-1_0" x="0" y="0" width="1" height="1" patternUnits="objectBoundingBox"><linearGradient id="satori_biid-1_0" x1="0" y1="0" x2="1" y2="0" spreadMethod="pad"><stop offset="0%" stop-color="rgb(121, 40, 202)"/><stop offset="100%" stop-color="rgb(255, 0, 128)"/></linearGradient><rect x="0" y="0" width="239" height="72" fill="url(#satori_biid-1_0)"/></pattern></defs><mask id="satori_om-id-1"><rect x="281" y="164" width="239" height="72" fill="#fff"/></mask><rect x="281" y="164" width="239" height="72" fill="url(#satori_pattern_id-1_0)" clip-path="url(#satori_bct-id-1)"/><clipPath id="satori_bct-id-2"><path d="M319.3 294.1L319.3 294.1L303.8 294.1L303.8 250.5L319.4 250.5Q326.0 250.5 330.7 253.1Q335.5 255.7 338.0 260.6Q340.6 265.5 340.6 272.3L340.6 272.3Q340.6 279.1 338.0 284.0Q335.5 288.9 330.7 291.5Q325.9 294.1 319.3 294.1ZM313.0 258.4L313.0 286.2L318.9 286.2Q323.0 286.2 325.8 284.8Q328.6 283.3 330.0 280.2Q331.4 277.1 331.4 272.3L331.4 272.3Q331.4 267.4 330.0 264.4Q328.6 261.3 325.8 259.8Q323.0 258.4 318.9 258.4L318.9 258.4L313.0 258.4ZM360.0 294.8L360.0 294.8Q355.1 294.8 351.5 292.6Q347.9 290.5 345.9 286.7Q343.9 282.9 343.9 277.9L343.9 277.9Q343.9 272.8 345.9 269.0Q347.9 265.2 351.5 263.1Q355.1 261.0 360.0 261.0L360.0 261.0Q365.0 261.0 368.6 263.1Q372.2 265.2 374.2 269.0Q376.2 272.8 376.2 277.9L376.2 277.9Q376.2 282.9 374.2 286.7Q372.2 290.5 368.6 292.6Q365.0 294.8 360.0 294.8ZM360.1 287.7L360.1 287.7Q362.3 287.7 363.9 286.4Q365.4 285.2 366.1 282.9Q366.9 280.7 366.9 277.8L366.9 277.8Q366.9 275.0 366.1 272.7Q365.4 270.5 363.9 269.2Q362.3 267.9 360.1 267.9L360.1 267.9Q357.8 267.9 356.3 269.2Q354.7 270.5 353.9 272.7Q353.2 275.0 353.2 277.8L353.2 277.8Q353.2 280.7 353.9 282.9Q354.7 285.2 356.3 286.4Q357.8 287.7 360.1 287.7ZM394.9 294.8L394.9 294.8Q389.8 294.8 386.2 292.6Q382.6 290.5 380.7 286.7Q378.8 282.9 378.8 277.9L378.8 277.9Q378.8 272.9 380.7 269.1Q382.7 265.3 386.3 263.1Q389.9 261.0 394.8 261.0L394.8 261.0Q399.1 261.0 402.3 262.5Q405.5 264.1 407.4 266.9Q409.3 269.7 409.5 273.5L409.5 273.5L400.9 273.5Q400.6 271.0 399.0 269.5Q397.5 268.0 395.0 268.0L395.0 268.0Q392.9 268.0 391.3 269.2Q389.7 270.3 388.9 272.5Q388.0 274.7 388.0 277.8L388.0 277.8Q388.0 280.9 388.8 283.1Q389.7 285.3 391.3 286.4Q392.9 287.6 395.0 287.6L395.0 287.6Q396.5 287.6 397.8 286.9Q399.0 286.3 399.8 285.1Q400.7 283.9 400.9 282.1L400.9 282.1L409.5 282.1Q409.3 285.9 407.4 288.7Q405.6 291.6 402.4 293.2Q399.2 294.8 394.9 294.8ZM428.2 294.8L428.2 294.8Q423.2 294.8 419.6 292.7Q415.9 290.7 414.0 286.9Q412.0 283.1 412.0 277.9L412.0 277.9Q412.0 272.9 414.0 269.0Q415.9 265.2 419.5 263.1Q423.1 261.0 427.9 261.0L427.9 261.0Q431.1 261.0 433.9 262.0Q436.7 263.0 438.8 265.1Q440.9 267.2 442.1 270.3Q443.3 273.4 443.3 277.6L443.3 277.6L443.3 280.1L415.6 280.1L415.6 274.5L434.7 274.5Q434.7 272.5 433.9 271.0Q433.0 269.5 431.5 268.6Q430.0 267.7 428.0 267.7L428.0 267.7Q426.0 267.7 424.4 268.7Q422.8 269.6 421.9 271.2Q421.0 272.8 421.0 274.8L421.0 274.8L421.0 280.1Q421.0 282.5 421.9 284.3Q422.8 286.1 424.4 287.0Q426.1 288.0 428.4 288.0L428.4 288.0Q429.9 288.0 431.2 287.6Q432.4 287.1 433.3 286.3Q434.2 285.4 434.7 284.2L434.7 284.2L443.1 284.8Q442.4 287.8 440.5 290.0Q438.5 292.3 435.4 293.5Q432.3 294.8 428.2 294.8ZM456.3 275.2L456.3 275.2L456.3 294.1L447.2 294.1L447.2 261.4L455.8 261.4L455.8 267.2L456.2 267.2Q457.3 264.3 459.9 262.6Q462.4 261.0 466.1 261.0L466.1 261.0Q469.5 261.0 472.0 262.5Q474.5 264.0 475.9 266.7Q477.3 269.5 477.3 273.3L477.3 273.3L477.3 294.1L468.3 294.1L468.3 274.9Q468.3 271.9 466.7 270.2Q465.2 268.5 462.5 268.5L462.5 268.5Q460.6 268.5 459.2 269.3Q457.8 270.1 457.1 271.6Q456.3 273.1 456.3 275.2ZM480.2 261.4L499.9 261.4L499.9 268.2L480.2 268.2L480.2 261.4ZM484.7 285.3L484.7 253.6L493.7 253.6L493.7 284.1Q493.7 285.3 494.1 286.0Q494.5 286.7 495.2 287.0Q495.9 287.3 496.8 287.3L496.8 287.3Q497.4 287.3 498.1 287.1Q498.7 287.0 499.1 287.0L499.1 287.0L500.5 293.7Q499.8 293.9 498.6 294.2Q497.3 294.5 495.6 294.6L495.6 294.6Q492.3 294.7 489.8 293.7Q487.4 292.7 486.0 290.6Q484.6 288.5 484.7 285.3L484.7 285.3Z "/></clipPath><defs><pattern id="satori_pattern_id-2_0" x="0" y="0" width="1" height="1" patternUnits="objectBoundingBox"><linearGradient id="satori_biid-2_0" x1="0" y1="0" x2="1" y2="0" spreadMethod="pad"><stop offset="0%" stop-color="rgb(255, 77, 77)"/><stop offset="100%" stop-color="rgb(249, 203, 40)"/></linearGradient><rect x="0" y="0" width="201" height="73" fill="url(#satori_biid-2_0)"/></pattern></defs><mask id="satori_om-id-2"><rect x="300" y="236" width="201" height="73" fill="#fff"/></mask><rect x="300" y="236" width="201" height="73" fill="url(#satori_pattern_id-2_0)" clip-path="url(#satori_bct-id-2)"/></svg>